<svg data-v-423bf9ae="" xmlns="http://www.w3.org/2000/svg" viewBox="0 0 542.8192035134181 163" class="iconAbove"><!----><!----><!----><g data-v-423bf9ae="" id="52da69be-7741-43d3-904e-07902377b739" fill="white" transform="matrix(6.12870278179688,0,0,6.12870278179688,-5.638403451605427,98.03574888438857)"><path d="M9.20 9.04L9.20 5.38L7.45 8.96L7.45 8.96Q7.22 9.41 6.97 9.60L6.97 9.60L6.97 9.60Q6.72 9.79 6.37 9.79L6.37 9.79L6.37 9.79Q5.92 9.79 5.61 9.47L5.61 9.47L5.61 9.47Q5.31 9.16 4.82 8.33L4.82 8.33L3.19 5.38L3.19 9.34L3.19 9.34Q3.19 9.94 2.92 10.22L2.92 10.22L2.92 10.22Q2.65 10.50 2.10 10.50L2.10 10.50L2.10 10.50Q1.48 10.50 1.20 10.23L1.20 10.23L1.20 10.23Q0.92 9.95 0.92 9.16L0.92 9.16L0.92 3.05L0.92 3.05Q0.92 1.97 1.41 1.43L1.41 1.43L1.41 1.43Q1.90 0.88 3.07 0.88L3.07 0.88L3.07 0.88Q3.50 0.88 3.82 1.03L3.82 1.03L3.82 1.03Q4.14 1.18 4.30 1.37L4.30 1.37L4.30 1.37Q4.47 1.55 4.62 1.83L4.62 1.83L6.50 5.94L8.48 1.90L8.48 1.90Q9.00 0.90 10.35 0.90L10.35 0.90L10.35 0.90Q10.98 0.90 11.42 1.11L11.42 1.11L11.42 1.11Q11.87 1.33 12.13 1.81L12.13 1.81L12.13 1.81Q12.39 2.30 12.39 3.02L12.39 3.02L12.39 9.11L12.39 9.11Q12.38 10.50 10.64 10.50L10.64 10.50L10.64 10.50Q10.01 10.50 9.61 10.16L9.61 10.16L9.61 10.16Q9.21 9.81 9.20 9.04L9.20 9.04ZM13.89 1.88L13.89 1.88L13.89 1.88Q13.89 1.41 14.29 1.11L14.29 1.11L14.29 1.11Q14.69 0.81 15.41 0.81L15.41 0.81L15.41 0.81Q16.94 0.81 16.94 1.88L16.94 1.88L16.94 1.88Q16.94 2.46 16.55 2.70L16.55 2.70L16.55 2.70Q16.17 2.94 15.41 2.94L15.41 2.94L15.41 2.94Q14.76 2.94 14.32 2.69L14.32 2.69L14.32 2.69Q13.89 2.44 13.89 1.88ZM16.93 5.36L16.93 9.00L16.93 9.00Q16.93 9.84 16.58 10.17L16.58 10.17L16.58 10.17Q16.23 10.50 15.34 10.50L15.34 10.50L15.34 10.50Q14.52 10.50 14.22 10.12L14.22 10.12L14.22 10.12Q13.92 9.73 13.92 8.85L13.92 8.85L13.92 5.40L13.92 5.40Q13.92 4.69 14.30 4.26L14.30 4.26L14.30 4.26Q14.69 3.82 15.33 3.82L15.33 3.82L15.33 3.82Q16.09 3.82 16.51 4.15L16.51 4.15L16.51 4.15Q16.93 4.48 16.93 5.36L16.93 5.36ZM18.90 7.50L18.90 7.50L18.90 5.85L18.90 5.85Q18.55 5.84 18.34 5.73L18.34 5.73L18.34 5.73Q18.13 5.63 18.04 5.46L18.04 5.46L18.04 5.46Q17.95 5.29 17.95 5.04L17.95 5.04L17.95 5.04Q17.95 4.24 18.91 4.17L18.91 4.17L18.91 2.87L18.91 2.87Q18.91 2.34 19.68 1.91L19.68 1.91L19.68 1.91Q20.45 1.48 21.21 1.48L21.21 1.48L21.21 1.48Q21.67 1.48 21.81 1.75L21.81 1.75L21.81 1.75Q21.95 2.02 21.95 2.55L21.95 2.55L21.97 4.16L22.34 4.16L22.34 4.16Q23.11 4.16 23.40 4.36L23.40 4.36L23.40 4.36Q23.69 4.56 23.69 5.10L23.69 5.10L23.69 5.10Q23.69 5.32 23.60 5.47L23.60 5.47L23.60 5.47Q23.52 5.63 23.33 5.71L23.33 5.71L23.33 5.71Q23.14 5.80 22.88 5.83L22.88 5.83L22.88 5.83Q22.61 5.87 22.22 5.87L22.22 5.87L21.97 5.87L21.97 7.41L21.97 7.41Q21.97 7.63 21.99 7.78L21.99 7.78L21.99 7.78Q22.01 7.92 22.05 8.01L22.05 8.01L22.05 8.01Q22.09 8.09 22.17 8.12L22.17 8.12L22.17 8.12Q22.25 8.15 22.36 8.15L22.36 8.15L22.36 8.15Q22.53 8.15 22.64 8.03L22.64 8.03L22.64 8.03Q22.75 7.91 22.81 7.76L22.81 7.76L22.81 7.76Q22.88 7.62 22.98 7.50L22.98 7.50L22.98 7.50Q23.09 7.38 23.23 7.38L23.23 7.38L23.23 7.38Q23.55 7.38 23.72 7.53L23.72 7.53L23.72 7.53Q23.90 7.69 23.90 7.91L23.90 7.91L23.90 7.91Q23.90 8.29 23.75 8.72L23.75 8.72L23.75 8.72Q23.60 9.16 23.32 9.56L23.32 9.56L23.32 9.56Q23.04 9.97 22.55 10.23L22.55 10.23L22.55 10.23Q22.05 10.50 21.43 10.50L21.43 10.50L21.43 10.50Q20.05 10.50 19.47 9.80L19.47 9.80L19.47 9.80Q18.90 9.10 18.90 7.50ZM25.91 7.50L25.91 7.50L25.91 5.85L25.91 5.85Q25.56 5.84 25.35 5.73L25.35 5.73L25.35 5.73Q25.14 5.63 25.05 5.46L25.05 5.46L25.05 5.46Q24.96 5.29 24.96 5.04L24.96 5.04L24.96 5.04Q24.96 4.24 25.93 4.17L25.93 4.17L25.93 2.87L25.93 2.87Q25.93 2.34 26.70 1.91L26.70 1.91L26.70 1.91Q27.47 1.48 28.22 1.48L28.22 1.48L28.22 1.48Q28.69 1.48 28.83 1.75L28.83 1.75L28.83 1.75Q28.97 2.02 28.97 2.55L28.97 2.55L28.98 4.16L29.36 4.16L29.36 4.16Q30.13 4.16 30.41 4.36L30.41 4.36L30.41 4.36Q30.70 4.56 30.70 5.10L30.70 5.10L30.70 5.10Q30.70 5.32 30.62 5.47L30.62 5.47L30.62 5.47Q30.53 5.63 30.34 5.71L30.34 5.71L30.34 5.71Q30.16 5.80 29.89 5.83L29.89 5.83L29.89 5.83Q29.62 5.87 29.23 5.87L29.23 5.87L28.98 5.87L28.98 7.41L28.98 7.41Q28.98 7.63 29.00 7.78L29.00 7.78L29.00 7.78Q29.02 7.92 29.06 8.01L29.06 8.01L29.06 8.01Q29.11 8.09 29.18 8.12L29.18 8.12L29.18 8.12Q29.26 8.15 29.37 8.15L29.37 8.15L29.37 8.15Q29.54 8.15 29.65 8.03L29.65 8.03L29.65 8.03Q29.76 7.91 29.83 7.76L29.83 7.76L29.83 7.76Q29.89 7.62 30.00 7.50L30.00 7.50L30.00 7.50Q30.10 7.38 30.24 7.38L30.24 7.38L30.24 7.38Q30.56 7.38 30.74 7.53L30.74 7.53L30.74 7.53Q30.91 7.69 30.91 7.91L30.91 7.91L30.91 7.91Q30.91 8.29 30.77 8.72L30.77 8.72L30.77 8.72Q30.62 9.16 30.34 9.56L30.34 9.56L30.34 9.56Q30.06 9.97 29.56 10.23L29.56 10.23L29.56 10.23Q29.06 10.50 28.45 10.50L28.45 10.50L28.45 10.50Q27.06 10.50 26.49 9.80L26.49 9.80L26.49 9.80Q25.91 9.10 25.91 7.50ZM34.73 10.58L34.73 10.58L34.73 10.58Q33.63 10.58 32.90 9.68L32.90 9.68L32.90 9.68Q32.17 8.78 32.17 7.21L32.17 7.21L32.17 7.21Q32.17 5.61 32.89 4.67L32.89 4.67L32.89 4.67Q33.61 3.72 34.73 3.72L34.73 3.72L34.73 3.72Q35.87 3.72 36.83 4.52L36.83 4.52L36.83 4.52Q37.21 3.82 38.05 3.82L38.05 3.82L38.05 3.82Q38.81 3.82 39.23 4.15L39.23 4.15L39.23 4.15Q39.65 4.48 39.65 5.36L39.65 5.36L39.65 9.00L39.65 9.00Q39.65 9.84 39.30 10.17L39.30 10.17L39.30 10.17Q38.95 10.50 38.07 10.50L38.07 10.50L38.07 10.50Q37.14 10.50 36.85 9.98L36.85 9.98L36.85 9.98Q35.95 10.58 34.73 10.58ZM36.64 8.48L36.64 5.87L36.64 5.87Q36.40 5.46 36.02 5.46L36.02 5.46L36.02 5.46Q35.66 5.46 35.43 5.99L35.43 5.99L35.43 5.99Q35.21 6.52 35.21 7.21L35.21 7.21L35.21 7.21Q35.21 7.85 35.42 8.36L35.42 8.36L35.42 8.36Q35.63 8.86 36.01 8.86L36.01 8.86L36.01 8.86Q36.40 8.86 36.64 8.48L36.64 8.48ZM44.04 2.46L44.04 8.39L44.04 8.39Q44.04 9.52 43.67 10.01L43.67 10.01L43.67 10.01Q43.29 10.50 42.50 10.50L42.50 10.50L42.50 10.50Q41.72 10.50 41.36 10.06L41.36 10.06L41.36 10.06Q40.99 9.62 40.99 8.50L40.99 8.50L40.96 2.59L40.96 2.59Q40.96 2.23 41.04 1.95L41.04 1.95L41.04 1.95Q41.12 1.67 41.25 1.47L41.25 1.47L41.25 1.47Q41.38 1.27 41.58 1.15L41.58 1.15L41.58 1.15Q41.78 1.02 42.01 0.97L42.01 0.97L42.01 0.97Q42.24 0.91 42.50 0.91L42.50 0.91L42.50 0.91Q43.27 0.91 43.66 1.22L43.66 1.22L43.66 1.22Q44.04 1.53 44.04 2.46L44.04 2.46ZM55.09 3.54L55.09 3.54L55.09 3.54Q55.09 3.25 54.85 3.04L54.85 3.04L54.85 3.04Q54.60 2.83 54.26 2.83L54.26 2.83L54.26 2.83Q53.59 2.83 53.16 3.59L53.16 3.59L53.16 3.59Q52.72 4.35 52.72 5.32L52.72 5.32L52.72 5.32Q52.72 6.06 53.00 6.66L53.00 6.66L53.00 6.66Q53.28 7.25 53.82 7.60L53.82 7.60L53.82 7.60Q54.35 7.95 55.05 7.95L55.05 7.95L55.05 7.95Q55.57 7.95 56.04 7.75L56.04 7.75L56.04 7.75Q56.52 7.55 56.81 7.30L56.81 7.30L56.81 7.30Q57.11 7.06 57.42 6.85L57.42 6.85L57.42 6.85Q57.74 6.65 57.97 6.65L57.97 6.65L57.97 6.65Q58.28 6.65 58.51 6.89L58.51 6.89L58.51 6.89Q58.73 7.14 58.73 7.41L58.73 7.41L58.73 7.41Q58.73 7.70 58.56 8.09L58.56 8.09L58.56 8.09Q58.38 8.48 58.00 8.93L58.00 8.93L58.00 8.93Q57.62 9.37 57.12 9.74L57.12 9.74L57.12 9.74Q56.62 10.11 55.87 10.35L55.87 10.35L55.87 10.35Q55.12 10.60 54.29 10.60L54.29 10.60L54.29 10.60Q53.20 10.60 52.27 10.27L52.27 10.27L52.27 10.27Q51.34 9.94 50.65 9.33L50.65 9.33L50.65 9.33Q49.97 8.72 49.57 7.80L49.57 7.80L49.57 7.80Q49.18 6.87 49.18 5.73L49.18 5.73L49.18 5.73Q49.18 3.46 50.54 2.14L50.54 2.14L50.54 2.14Q51.90 0.83 54.10 0.83L54.10 0.83L54.10 0.83Q55.22 0.83 56.17 1.20L56.17 1.20L56.17 1.20Q57.12 1.58 57.68 2.25L57.68 2.25L57.68 2.25Q58.24 2.93 58.24 3.72L58.24 3.72L58.24 3.72Q58.24 4.65 57.62 5.40L57.62 5.40L57.62 5.40Q57.01 6.15 56.03 6.15L56.03 6.15L56.03 6.15Q55.47 6.15 55.02 5.84L55.02 5.84L55.02 5.84Q54.57 5.53 54.57 4.96L54.57 4.96L54.57 4.96Q54.57 4.69 54.83 4.21L54.83 4.21L54.83 4.21Q55.09 3.74 55.09 3.54ZM63.15 2.46L63.15 8.39L63.15 8.39Q63.15 9.52 62.78 10.01L62.78 10.01L62.78 10.01Q62.40 10.50 61.61 10.50L61.61 10.50L61.61 10.50Q60.83 10.50 60.47 10.06L60.47 10.06L60.47 10.06Q60.10 9.62 60.10 8.50L60.10 8.50L60.07 2.59L60.07 2.59Q60.07 2.23 60.15 1.95L60.15 1.95L60.15 1.95Q60.23 1.67 60.36 1.47L60.36 1.47L60.36 1.47Q60.49 1.27 60.69 1.15L60.69 1.15L60.69 1.15Q60.89 1.02 61.12 0.97L61.12 0.97L61.12 0.97Q61.35 0.91 61.61 0.91L61.61 0.91L61.61 0.91Q62.38 0.91 62.77 1.22L62.77 1.22L62.77 1.22Q63.15 1.53 63.15 2.46L63.15 2.46ZM68.96 7.18L68.96 7.18L68.96 7.18Q68.96 6.45 68.78 5.90L68.78 5.90L68.78 5.90Q68.60 5.35 68.25 5.35L68.25 5.35L68.25 5.35Q68.01 5.35 67.83 5.63L67.83 5.63L67.83 5.63Q67.65 5.91 67.56 6.31L67.56 6.31L67.56 6.31Q67.48 6.72 67.48 7.18L67.48 7.18L67.48 7.18Q67.48 7.90 67.68 8.44L67.68 8.44L67.68 8.44Q67.87 8.97 68.24 8.97L68.24 8.97L68.24 8.97Q68.60 8.97 68.78 8.44L68.78 8.44L68.78 8.44Q68.96 7.91 68.96 7.18ZM68.24 10.60L68.24 10.60L68.24 10.60Q67.14 10.60 66.27 10.21L66.27 10.21L66.27 10.21Q65.39 9.81 64.87 9.03L64.87 9.03L64.87 9.03Q64.34 8.25 64.34 7.20L64.34 7.20L64.34 7.20Q64.34 5.60 65.44 4.66L65.44 4.66L65.44 4.66Q66.53 3.72 68.24 3.72L68.24 3.72L68.24 3.72Q69.94 3.72 71.02 4.66L71.02 4.66L71.02 4.66Q72.10 5.60 72.10 7.20L72.10 7.20L72.10 7.20Q72.10 8.78 71.00 9.69L71.00 9.69L71.00 9.69Q69.90 10.60 68.24 10.60ZM76.33 4.98L76.34 7.55L76.34 7.55Q76.34 8.34 76.96 8.34L76.96 8.34L76.96 8.34Q77.17 8.34 77.33 8.21L77.33 8.21L77.33 8.21Q77.49 8.08 77.57 7.84L77.57 7.84L77.57 7.84Q77.66 7.60 77.66 7.29L77.66 7.29L77.66 5.42L77.66 5.42Q77.66 4.94 77.83 4.58L77.83 4.58L77.83 4.58Q77.99 4.23 78.32 4.03L78.32 4.03L78.32 4.03Q78.64 3.84 79.07 3.84L79.07 3.84L79.07 3.84Q79.83 3.84 80.25 4.17L80.25 4.17L80.25 4.17Q80.67 4.49 80.67 5.38L80.67 5.38L80.67 9.02L80.67 9.02Q80.67 9.87 80.32 10.19L80.32 10.19L80.32 10.19Q79.97 10.51 79.09 10.51L79.09 10.51L79.09 10.51Q78.71 10.51 78.44 10.44L78.44 10.44L78.44 10.44Q78.18 10.36 78.02 10.21L78.02 10.21L78.02 10.21Q77.85 10.05 77.77 9.80L77.77 9.80L77.77 9.80Q77.20 10.18 76.56 10.33L76.56 10.33L76.56 10.33Q75.92 10.49 75.14 10.49L75.14 10.49L75.14 10.49Q74.14 10.49 73.71 9.71L73.71 9.71L73.71 9.71Q73.28 8.93 73.28 7.15L73.28 7.15L73.28 7.15Q73.28 6.27 73.32 5.72L73.32 5.72L73.32 5.72Q73.36 5.17 73.45 4.77L73.45 4.77L73.45 4.77Q73.54 4.37 73.73 4.17L73.73 4.17L73.73 4.17Q73.92 3.98 74.18 3.89L74.18 3.89L74.18 3.89Q74.44 3.81 74.86 3.81L74.86 3.81L74.86 3.81Q75.64 3.81 75.98 4.10L75.98 4.10L75.98 4.10Q76.33 4.40 76.33 4.98L76.33 4.98ZM89.49 2.46L89.49 8.40L89.49 8.40Q89.49 9.53 89.11 10.02L89.11 10.02L89.11 10.02Q88.73 10.50 87.95 10.50L87.95 10.50L87.95 10.50Q87.05 10.50 86.72 9.94L86.72 9.94L86.72 9.94Q85.81 10.60 84.52 10.60L84.52 10.60L84.52 10.60Q83.43 10.60 82.70 9.70L82.70 9.70L82.70 9.70Q81.97 8.79 81.97 7.22L81.97 7.22L81.97 7.22Q81.97 5.63 82.68 4.68L82.68 4.68L82.68 4.68Q83.40 3.74 84.52 3.74L84.52 3.74L84.52 3.74Q85.53 3.74 86.41 4.38L86.41 4.38L86.41 2.59L86.41 2.59Q86.41 1.74 86.83 1.32L86.83 1.32L86.83 1.32Q87.25 0.91 87.95 0.91L87.95 0.91L87.95 0.91Q88.72 0.91 89.10 1.22L89.10 1.22L89.10 1.22Q89.49 1.53 89.49 2.46L89.49 2.46ZM86.44 8.48L86.44 8.48L86.42 5.87L86.42 5.87Q86.18 5.47 85.81 5.47L85.81 5.47L85.81 5.47Q85.57 5.47 85.38 5.74L85.38 5.74L85.38 5.74Q85.19 6.01 85.09 6.40L85.09 6.40L85.09 6.40Q84.99 6.79 84.99 7.22L84.99 7.22L84.99 7.22Q84.99 7.87 85.20 8.37L85.20 8.37L85.20 8.37Q85.41 8.88 85.79 8.88L85.79 8.88L85.79 8.88Q85.86 8.88 85.93 8.86L85.93 8.86L85.93 8.86Q86.00 8.85 86.06 8.83L86.06 8.83L86.06 8.83Q86.11 8.81 86.17 8.77L86.17 8.77L86.17 8.77Q86.23 8.74 86.27 8.69L86.27 8.69L86.27 8.69Q86.31 8.65 86.35 8.60L86.35 8.60L86.35 8.60Q86.39 8.54 86.44 8.48Z"></path></g><!----><g data-v-423bf9ae="" id="0e75aa6a-3f68-4f62-be91-798378449719" transform="matrix(4.799232056475338,0,0,4.799232056475338,195.2776927490107,-31.166114275398826)" stroke="none" fill="white"><path d="M8.063 25.377c-3.313 0-6-2.688-6-6a5.985 5.985 0 0 1 4.127-5.688 4.22 4.22 0 0 1 4.216-4.065c.729 0 1.415.189 2.01.517a7.239 7.239 0 0 1 6.208-3.517 7.252 7.252 0 0 1 7.248 7.078 5.994 5.994 0 0 1 4.064 5.667c0 3.312-2.688 6-6 6H8.063v.008zm16.602-9.926a.998.998 0 0 1-.814-1.078c.021-.172.026-.336.026-.498a5.258 5.258 0 0 0-5.251-5.248 5.246 5.246 0 0 0-4.911 3.41 1 1 0 0 1-1.675.32 2.194 2.194 0 0 0-1.633-.73 2.223 2.223 0 0 0-2.22 2.217c0 .137.017.277.045.425.049.267-.008.54-.163.762a.991.991 0 0 1-.657.414c-1.899.312-3.352 1.95-3.35 3.93a4.01 4.01 0 0 0 4.001 4.002h15.875a4.007 4.007 0 0 0 3.998-4.002 3.994 3.994 0 0 0-3.271-3.924"></path></g><!----></svg>